<?xml version="1.0" encoding="UTF-8"?>
<svg width="155px" height="115px" viewBox="0 0 155 115" version="1.1" xmlns="http://www.w3.org/2000/svg" xmlns:xlink="http://www.w3.org/1999/xlink">
    <!-- Generator: Sketch 64 (93537) - https://sketch.com -->
    <title>Group</title>
    <desc>Created with Sketch.</desc>
    <g id="Symbols" stroke="none" stroke-width="1" fill="none" fill-rule="evenodd">
        <g id="Navigation" transform="translate(-51.000000, -23.000000)">
            <g id="Group" transform="translate(51.000000, 23.000000)">
                <rect id="Rectangle" fill="#FFFFFF" x="9.18" y="10.71" width="134.64" height="93.33"></rect>
                <g id="UDS_Foundation_logo_RGB_KO" fill="#008542" fill-rule="nonzero">
                    <path d="M68.3225767,54.6626788 C68.3841424,63.0279233 73.0554427,67.5683964 80.2663297,67.5683964 C82.7520463,67.5683964 85.8380289,66.1754716 88.0236125,64.2977166 L88.0236125,43.0267545 C84.691367,42.1802256 82.3287819,41.8108312 79.7199338,41.8108312 C72.2012181,41.8108312 68.3225767,46.4821315 68.3225767,54.6626788 Z" id="Path"></path>
                    <polygon id="Path" points="85.1838929 88.146744 84.9222385 88.9701858 84.2911897 90.894115 86.0765961 90.894115 85.4455473 88.9778815"></polygon>
                    <path d="M0.0692614542,6.21813944 L0.0692614542,108.132521 C48.7215852,116.374634 105.939242,116.374634 154.514609,108.132521 L154.514609,6.21813944 C105.946938,-2.02397361 48.7215852,-2.02397361 0.0692614542,6.21813944 Z M35.0924701,87.8235239 L31.3908302,87.8235239 L31.3908302,89.2934059 L34.6461185,89.2934059 L34.6461185,90.8017664 L31.3908302,90.8017664 L31.3908302,93.9493147 L29.790121,93.9493147 L29.790121,86.3151633 L35.0924701,86.3151633 L35.0924701,87.8235239 Z M42.3957057,94.0878376 C40.1485563,94.0878376 38.9557201,92.7256957 38.9557201,90.1399348 C38.9557201,87.5541738 40.1485563,86.1920319 42.3957057,86.1920319 C44.6428551,86.1920319 45.8356912,87.5541738 45.8356912,90.1399348 C45.8279955,92.718 44.6428551,94.0878376 42.3957057,94.0878376 Z M56.1710393,91.1249866 C56.1710393,93.0873944 55.1167261,94.0801419 53.0311868,94.0801419 C50.9533431,94.0801419 49.8913342,93.0873944 49.8913342,91.1249866 L49.8913342,86.3228591 L51.4920433,86.3228591 L51.4920433,91.1249866 C51.4920433,91.9946026 51.7536977,92.5794771 53.0311868,92.5794771 C54.3086758,92.5794771 54.5703302,92.0022983 54.5703302,91.1249866 L54.5703302,86.3228591 L56.1710393,86.3228591 L56.1710393,91.1249866 Z M54.8088974,73.9943202 C50.3838601,73.9943202 47.4133132,72.3551325 45.597124,69.2691499 C42.5650115,72.3628282 38.932633,73.9943202 34.8692943,73.9943202 C24.8648621,73.9943202 19.1084656,68.1763581 19.2315971,59.6264163 L19.3547286,49.868247 L19.2315971,37.0163994 L26.5656155,36.8932679 L26.5040498,48.6523237 L26.5656155,58.0487943 C26.6271813,64.1668894 30.0825583,67.5068307 36.6854836,67.5068307 C39.2943317,67.5683964 41.6569168,66.4140388 44.7428994,63.3280563 L44.7428994,50.11451 L44.6813337,37.0240951 L51.9537864,36.9009636 L51.8922206,48.9601524 L51.9537864,61.8735657 C51.9537864,65.8137729 53.4082769,67.5068307 56.5019552,67.5068307 C58.8029746,67.5068307 60.1420294,66.9604348 60.1420294,66.9604348 L60.9885583,72.232001 C60.9885583,72.2396967 58.8106703,73.9943202 54.8088974,73.9943202 Z M67.0758705,93.9493147 L65.6444671,93.9493147 L63.0664019,90.1014562 L62.6046589,89.3780588 L62.6200503,90.6555478 L62.6200503,93.9570105 L61.0193411,93.9570105 L61.0193411,86.3228591 L62.4507445,86.3228591 L65.0288098,90.1707176 L65.4905528,90.894115 L65.4751614,89.616626 L65.4751614,86.3151633 L67.0758705,86.3151633 L67.0758705,93.9493147 Z M74.6330647,93.9493147 L71.8933894,93.9493147 L71.8933894,86.3151633 L74.6330647,86.3151633 C77.0264328,86.3151633 78.1807903,87.5618695 78.1807903,90.132239 C78.1807903,92.7026086 77.0187371,93.9493147 74.6330647,93.9493147 Z M87.1078222,93.9493147 L86.5306434,92.2793441 L83.8294467,92.2793441 L83.2522679,93.9493147 L81.5284273,93.9493147 L84.3065812,86.2228147 L86.0458132,86.2228147 L88.8239671,93.9493147 L87.1078222,93.9493147 Z M97.5509104,87.8235239 L95.411501,87.8235239 L95.411501,93.9493147 L93.8107918,93.9493147 L93.8107918,87.8235239 L91.6713825,87.8235239 L91.6713825,86.3151633 L97.5509104,86.3151633 L97.5509104,87.8235239 L97.5509104,87.8235239 Z M103.707484,93.9493147 L102.106775,93.9493147 L102.106775,86.3151633 L103.707484,86.3151633 L103.707484,93.9493147 Z M98.0819148,73.9943202 C93.9031404,73.9943202 91.0480294,72.5398297 89.1702744,69.7539801 C86.5614263,72.3628282 82.3210862,73.9943202 78.4424447,73.9943202 C68.1378795,73.9943202 60.8654268,66.4756046 60.9885583,56.0556036 C60.9885583,43.2653217 68.8689726,35.3310374 81.6592545,35.3310374 C83.4754437,35.3310374 85.4763302,35.6311703 88.0236125,36.239132 L88.0236125,31.8140946 L87.9620468,18.4235468 L95.2960652,18.3004153 L95.1729338,30.6674328 L95.2344995,61.8812615 C95.2344995,65.8830344 96.68899,67.5145264 99.7826683,67.5145264 C101.845121,67.5145264 103.114914,66.9681305 103.114914,66.9681305 L103.961443,72.2396967 C103.961443,72.2396967 101.837425,73.9943202 98.0819148,73.9943202 Z M111.634073,94.0878376 C109.386923,94.0878376 108.194087,92.7256957 108.194087,90.1399348 C108.194087,87.5541738 109.386923,86.1920319 111.634073,86.1920319 C113.881222,86.1920319 115.074058,87.5541738 115.074058,90.1399348 C115.066363,92.718 113.881222,94.0878376 111.634073,94.0878376 Z M124.801445,93.9493147 L123.370041,93.9493147 L120.791976,90.1014562 L120.330233,89.3780588 L120.345625,90.6555478 L120.345625,93.9570105 L118.744915,93.9570105 L118.744915,86.3228591 L120.176319,86.3228591 L122.754384,90.1707176 L123.216127,90.894115 L123.200736,89.616626 L123.200736,86.3151633 L124.801445,86.3151633 L124.801445,93.9493147 L124.801445,93.9493147 Z M121.05363,73.9943202 C115.959066,73.9943202 109.964102,72.3551325 106.385594,70.1772445 L107.293688,63.9975837 L107.716953,63.4511877 C113.773482,66.4217346 118.62948,67.5145264 122.38499,67.5145264 C126.933158,67.5145264 128.503085,65.9369044 128.503085,63.389622 C128.503085,61.3887356 127.471859,60.2959437 123.169953,59.0261504 L117.475122,57.3253969 C110.202669,55.1398132 107.293688,52.0538307 107.293688,47.5056619 C107.293688,40.4717764 112.865387,35.3233416 122.685123,35.3233416 C126.202065,35.3233416 131.050367,36.6547007 134.444178,38.8402844 L132.866556,45.0199452 L132.381726,45.3816439 C128.379953,42.8343616 124.747575,41.8031355 121.353763,41.8031355 C115.959066,41.8031355 114.266008,43.257626 114.266008,45.8049084 C114.327574,47.7442291 115.420366,48.8985867 120.384103,50.4685129 L125.963498,52.2231365 C132.751121,54.3471544 135.359969,57.1945697 135.359969,61.7350428 C135.359969,68.6611882 129.595876,73.9943202 121.05363,73.9943202 Z" id="Shape"></path>
                    <path d="M74.6330647,87.8235239 L73.4940986,87.8235239 L73.4940986,92.4409542 L74.6330647,92.4409542 C75.9490324,92.4409542 76.556994,91.7098611 76.556994,90.132239 C76.556994,88.5623127 75.9413367,87.8235239 74.6330647,87.8235239 Z" id="Path"></path>
                    <path d="M111.634073,87.6926967 C110.395062,87.6926967 109.810188,88.4699641 109.810188,90.132239 C109.810188,91.8022097 110.387367,92.5717814 111.634073,92.5717814 C112.888475,92.5717814 113.442566,91.8176011 113.442566,90.132239 C113.442566,88.446877 112.880779,87.6926967 111.634073,87.6926967 Z" id="Path"></path>
                    <path d="M42.3957057,87.6926967 C41.1566952,87.6926967 40.5718207,88.4699641 40.5718207,90.132239 C40.5718207,91.8022097 41.1489995,92.5717814 42.3957057,92.5717814 C43.6501076,92.5717814 44.2041992,91.8176011 44.2041992,90.132239 C44.2041992,88.446877 43.6424119,87.6926967 42.3957057,87.6926967 Z" id="Path"></path>
                </g>
            </g>
        </g>
    </g>
</svg>